<svg xmlns="http://www.w3.org/2000/svg" viewBox="0 0 16 13" width="16" height="13" shape-rendering="crispEdges"><rect x="2" y="0" width="12" height="1" fill="#2a1408"/><rect x="1" y="1" width="1" height="1" fill="#2a1408"/><rect x="2" y="1" width="1" height="1" fill="#9c865a"/><rect x="3" y="1" width="10" height="1" fill="#d9c28e"/><rect x="13" y="1" width="1" height="1" fill="#9c865a"/><rect x="14" y="1" width="1" height="1" fill="#2a1408"/><rect x="1" y="2" width="14" height="1" fill="#2a1408"/><rect x="2" y="3" width="1" height="1" fill="#2a1408"/><rect x="3" y="3" width="10" height="1" fill="#efe2bd"/><rect x="13" y="3" width="1" height="1" fill="#2a1408"/><rect x="2" y="4" width="1" height="1" fill="#2a1408"/><rect x="3" y="4" width="1" height="1" fill="#efe2bd"/><rect x="4" y="4" width="2" height="1" fill="#9c7043"/><rect x="6" y="4" width="7" height="1" fill="#efe2bd"/><rect x="13" y="4" width="1" height="1" fill="#2a1408"/><rect x="2" y="5" width="1" height="1" fill="#2a1408"/><rect x="3" y="5" width="1" height="1" fill="#efe2bd"/><rect x="4" y="5" width="3" height="1" fill="#9c7043"/><rect x="7" y="5" width="3" height="1" fill="#efe2bd"/><rect x="10" y="5" width="1" height="1" fill="#c2182b"/><rect x="11" y="5" width="1" height="1" fill="#efe2bd"/><rect x="12" y="5" width="1" height="1" fill="#c2182b"/><rect x="13" y="5" width="1" height="1" fill="#2a1408"/><rect x="2" y="6" width="1" height="1" fill="#2a1408"/><rect x="3" y="6" width="2" height="1" fill="#efe2bd"/><rect x="5" y="6" width="2" height="1" fill="#9c7043"/><rect x="7" y="6" width="4" height="1" fill="#efe2bd"/><rect x="11" y="6" width="1" height="1" fill="#c2182b"/><rect x="12" y="6" width="1" height="1" fill="#efe2bd"/><rect x="13" y="6" width="1" height="1" fill="#2a1408"/><rect x="2" y="7" width="1" height="1" fill="#2a1408"/><rect x="3" y="7" width="7" height="1" fill="#efe2bd"/><rect x="10" y="7" width="1" height="1" fill="#c2182b"/><rect x="11" y="7" width="1" height="1" fill="#efe2bd"/><rect x="12" y="7" width="1" height="1" fill="#c2182b"/><rect x="13" y="7" width="1" height="1" fill="#2a1408"/><rect x="2" y="8" width="1" height="1" fill="#2a1408"/><rect x="3" y="8" width="4" height="1" fill="#efe2bd"/><rect x="7" y="8" width="3" height="1" fill="#9c7043"/><rect x="10" y="8" width="3" height="1" fill="#efe2bd"/><rect x="13" y="8" width="1" height="1" fill="#2a1408"/><rect x="2" y="9" width="1" height="1" fill="#2a1408"/><rect x="3" y="9" width="4" height="1" fill="#efe2bd"/><rect x="7" y="9" width="2" height="1" fill="#9c7043"/><rect x="9" y="9" width="4" height="1" fill="#efe2bd"/><rect x="13" y="9" width="1" height="1" fill="#2a1408"/><rect x="1" y="10" width="14" height="1" fill="#2a1408"/><rect x="1" y="11" width="1" height="1" fill="#2a1408"/><rect x="2" y="11" width="1" height="1" fill="#9c865a"/><rect x="3" y="11" width="10" height="1" fill="#d9c28e"/><rect x="13" y="11" width="1" height="1" fill="#9c865a"/><rect x="14" y="11" width="1" height="1" fill="#2a1408"/><rect x="2" y="12" width="12" height="1" fill="#2a1408"/></svg>
