<svg xmlns="http://www.w3.org/2000/svg" viewBox="0 0 20 9" width="20" height="9" shape-rendering="crispEdges"><rect x="0" y="0" width="20" height="1" fill="#2b1208"/><rect x="0" y="1" width="10" height="1" fill="#f6a066"/><rect x="10" y="1" width="1" height="1" fill="#2b1208"/><rect x="11" y="1" width="9" height="1" fill="#f6a066"/><rect x="0" y="2" width="9" height="1" fill="#d9692f"/><rect x="9" y="2" width="1" height="1" fill="#2b1208"/><rect x="10" y="2" width="1" height="1" fill="#fff0a0"/><rect x="11" y="2" width="1" height="1" fill="#2b1208"/><rect x="12" y="2" width="8" height="1" fill="#d9692f"/><rect x="0" y="3" width="8" height="1" fill="#4a1f10"/><rect x="8" y="3" width="1" height="1" fill="#2b1208"/><rect x="9" y="3" width="1" height="1" fill="#fff0a0"/><rect x="10" y="3" width="1" height="1" fill="#f5b82a"/><rect x="11" y="3" width="1" height="1" fill="#c98a12"/><rect x="12" y="3" width="1" height="1" fill="#2b1208"/><rect x="13" y="3" width="7" height="1" fill="#4a1f10"/><rect x="0" y="4" width="7" height="1" fill="#d9692f"/><rect x="7" y="4" width="1" height="1" fill="#2b1208"/><rect x="8" y="4" width="1" height="1" fill="#fff0a0"/><rect x="9" y="4" width="2" height="1" fill="#f5b82a"/><rect x="11" y="4" width="2" height="1" fill="#c98a12"/><rect x="13" y="4" width="1" height="1" fill="#2b1208"/><rect x="14" y="4" width="6" height="1" fill="#d9692f"/><rect x="0" y="5" width="8" height="1" fill="#4a1f10"/><rect x="8" y="5" width="1" height="1" fill="#2b1208"/><rect x="9" y="5" width="1" height="1" fill="#f5b82a"/><rect x="10" y="5" width="2" height="1" fill="#c98a12"/><rect x="12" y="5" width="1" height="1" fill="#2b1208"/><rect x="13" y="5" width="7" height="1" fill="#4a1f10"/><rect x="0" y="6" width="9" height="1" fill="#d9692f"/><rect x="9" y="6" width="1" height="1" fill="#2b1208"/><rect x="10" y="6" width="1" height="1" fill="#c98a12"/><rect x="11" y="6" width="1" height="1" fill="#2b1208"/><rect x="12" y="6" width="8" height="1" fill="#d9692f"/><rect x="0" y="7" width="10" height="1" fill="#a84a1e"/><rect x="10" y="7" width="1" height="1" fill="#2b1208"/><rect x="11" y="7" width="9" height="1" fill="#a84a1e"/><rect x="0" y="8" width="20" height="1" fill="#2b1208"/></svg>
